<svg xmlns="http://www.w3.org/2000/svg" width="134.288" height="173.819" viewBox="0 0 134.288 173.819"><g transform="translate(-343.28 -16.572)"><g transform="translate(54.28 20.572)"><path d="M658.573,760.753a9.574,9.574,0,1,1,7.465,9.489,20.6,20.6,0,0,0-2.415,23.9l17.175,29.68h0l20.033,34.636a63.019,63.019,0,0,0,34.035-8.435h0a63.1,63.1,0,0,0,24.25-25.305l-20.033-34.646h0l-17.123-29.66a20.571,20.571,0,0,0-21.868-9.774,9.574,9.574,0,1,1-4.534-11.271,32.557,32.557,0,0,1,36.776,15.1l17.123,29.669h0l23.2,40.066-1.128,2.436a75.047,75.047,0,0,0,.338,44.927l6.442,11.166a2.035,2.035,0,0,1-.738,2.783l-5.44,3.163,10.618,18.378a3.311,3.311,0,0,1-2.868,4.956H759.1a6.031,6.031,0,0,1-5.272-3.026l-4.218-7.318-5.441,3.164a2.046,2.046,0,0,1-2.783-.749l-6.453-11.176a74.993,74.993,0,0,0-38.738-22.743l-2.667-.242-18.863-32.685h0l-21.4-37.04A32.559,32.559,0,0,1,658.573,760.753Zm85.709,124.626.411.464,2.108,3.638,8.087-4.672,8.087-4.66-2.108-3.648-.2-.58a87.5,87.5,0,0,1-4.344-24.251q0-1.581,0-3.163a73.953,73.953,0,0,1-15.478,11.84h0a73.664,73.664,0,0,1-17.988,7.487c.907.516,1.8,1.054,2.7,1.613A87.063,87.063,0,0,1,744.283,885.379Z" transform="translate(-359.895 -742.194)" fill="#2d4bc9"/></g></g></svg>