<svg xmlns="http://www.w3.org/2000/svg" width="670.922" height="173.819" viewBox="0 0 670.922 173.819"><g transform="translate(-54.28 -20.572)"><g transform="translate(54.28 20.572)"><path d="M658.573,760.753a9.574,9.574,0,1,1,7.465,9.489,20.6,20.6,0,0,0-2.415,23.9l17.175,29.68h0l20.033,34.636a63.019,63.019,0,0,0,34.035-8.435h0a63.1,63.1,0,0,0,24.25-25.305l-20.033-34.646h0l-17.123-29.66a20.571,20.571,0,0,0-21.868-9.774,9.574,9.574,0,1,1-4.534-11.271,32.557,32.557,0,0,1,36.776,15.1l17.123,29.669h0l23.2,40.066-1.128,2.436a75.047,75.047,0,0,0,.338,44.927l6.442,11.166a2.035,2.035,0,0,1-.738,2.783l-5.44,3.163,10.618,18.378a3.311,3.311,0,0,1-2.868,4.956H759.1a6.031,6.031,0,0,1-5.272-3.026l-4.218-7.318-5.441,3.164a2.046,2.046,0,0,1-2.783-.749l-6.453-11.176a74.993,74.993,0,0,0-38.738-22.743l-2.667-.242-18.863-32.685h0l-21.4-37.04A32.559,32.559,0,0,1,658.573,760.753Zm85.709,124.626.411.464,2.108,3.638,8.087-4.672,8.087-4.66-2.108-3.648-.2-.58a87.5,87.5,0,0,1-4.344-24.251q0-1.581,0-3.163a73.953,73.953,0,0,1-15.478,11.84h0a73.664,73.664,0,0,1-17.988,7.487c.907.516,1.8,1.054,2.7,1.613A87.063,87.063,0,0,1,744.283,885.379Z" transform="translate(-648.895 -738.194)" fill="#2d4bc9"/><path d="M293.127,867.2H278.52v25.141H251.76V797.71h43.219c25.816,0,42.041,13.38,42.041,35.014,0,13.92-6.758,24.2-18.519,29.875l20.407,29.74H310.3Zm.27-48.407H278.52v27.717H293.4c11.038,0,16.63-5.139,16.63-13.785S304.483,818.792,293.4,818.792Zm123.867,43.4H363.952c2.171,7.432,8.524,11.761,17.991,11.761a23.421,23.421,0,0,0,16.888-6.353l13.49,14.054c-7.027,7.849-17.3,11.9-31.237,11.9-26.086,0-42.986-16.09-42.986-38.018s17.17-37.724,40.288-37.724c21.634,0,39.245,13.8,39.245,38.018-.012,1.9-.27,4.342-.4,6.365Zm-53.68-13.49h30.022a14.5,14.5,0,0,0-15.048-12.62c-7.972,0-13.515,4.905-15.011,12.595ZM498.1,819.1l-30.317,73.241H441.289l-30.157-73.266H437.5l17.575,44.739,18.519-44.739Zm57.641,49.608H505.454l-10.4,23.658h-14.03l42.863-94.63h13.38l42.986,94.63H566.014ZM551,857.89,530.51,811.556l-20.42,46.309Zm108.279-1.349c0,22.075-15.269,36.633-36.228,36.633-10.142,0-19.058-3.925-25.006-11.627v37.037H584.987V820.717h12.436v11.357c5.813-7.984,15-12.031,25.546-12.031,20.959-.025,36.253,14.57,36.253,36.473Zm-13.11,0c0-15.146-10.412-25.141-24.2-25.141s-24.062,9.995-24.062,25.141,10.412,25.276,24.062,25.276,24.111-10.02,24.111-25.3Zm94.09,0c0,22.075-15.281,36.633-36.228,36.633-10.142,0-19.058-3.925-25.006-11.627v37.037H665.954V820.717H678.4v11.357c5.8-7.984,15-12.031,25.546-12.031,20.947-.025,36.216,14.57,36.216,36.473Zm-13.11,0c0-15.146-10.412-25.141-24.2-25.141s-24.111,9.97-24.111,25.117,10.4,25.276,24.062,25.276,24.16-9.995,24.16-25.276Z" transform="translate(-69.339 -764.49)" fill="#3f3d56"/></g></g></svg>